<?xml version="1.0" standalone="no"?><!DOCTYPE svg PUBLIC "-//W3C//DTD SVG 1.1//EN" "http://www.w3.org/Graphics/SVG/1.1/DTD/svg11.dtd"><svg t="1681463524286" class="icon" viewBox="0 0 1024 1024" version="1.1" xmlns="http://www.w3.org/2000/svg" p-id="6797" xmlns:xlink="http://www.w3.org/1999/xlink" width="200" height="200"><path d="M96 184.32V768a96 96 0 0 0 96 96v64a64 64 0 0 0 64 64h64a64 64 0 0 0 64-64v-64h256v64a64 64 0 0 0 64 64h64a64 64 0 0 0 64-64v-64a96 96 0 0 0 96-96V184.32c0-203.2-832-203.2-832 0z m192 576A88 88 0 1 1 376 672 88 88 0 0 1 288 760z m448 0A88 88 0 1 1 824 672 88 88 0 0 1 736 760zM832 416H192V256a64 64 0 0 1 64-64h512a64 64 0 0 1 64 64z" fill="#e87717" p-id="6798"></path></svg>