<?xml version="1.0" standalone="no"?><!DOCTYPE svg PUBLIC "-//W3C//DTD SVG 1.1//EN" "http://www.w3.org/Graphics/SVG/1.1/DTD/svg11.dtd"><svg t="1681449597412" class="icon" viewBox="0 0 1024 1024" version="1.1" xmlns="http://www.w3.org/2000/svg" p-id="3208" xmlns:xlink="http://www.w3.org/1999/xlink" width="200" height="200"><path d="M908.56 150.58h-64.09V117a44.65 44.65 0 0 0-44.6-44.59h-562A44.65 44.65 0 0 0 193.24 117v33.59h-64.09a61.64 61.64 0 0 0-61.58 61.58V659a61.65 61.65 0 0 0 61.58 61.59h47.91V867.7a64.27 64.27 0 0 0 64.2 64.2h555.19a64.27 64.27 0 0 0 64.2-64.2V720.6h47.91a61.66 61.66 0 0 0 61.59-61.6V212.16a61.65 61.65 0 0 0-61.59-61.58zM236 117a1.81 1.81 0 0 1 1.81-1.79h562a1.8 1.8 0 0 1 1.8 1.79v33.59H236z m560.45 772.1H241.26a21.42 21.42 0 0 1-21.4-21.4V417.55a21.43 21.43 0 0 1 21.4-21.4h555.19a21.42 21.42 0 0 1 21.4 21.4V688.9a19.13 19.13 0 0 0 0 20.6v158.2a21.42 21.42 0 0 1-21.4 21.4zM927.35 659a18.81 18.81 0 0 1-18.79 18.79h-47.91V417.55a64.27 64.27 0 0 0-64.2-64.2H241.26a64.27 64.27 0 0 0-64.2 64.2V677.8h-47.91a18.8 18.8 0 0 1-18.78-18.8V212.16a18.8 18.8 0 0 1 18.78-18.78h779.41a18.81 18.81 0 0 1 18.79 18.78z" p-id="3209"></path><path d="M328.94 589.11h379.83a21.4 21.4 0 0 0 0-42.8H328.94a21.4 21.4 0 1 0 0 42.8zM727.1 698.7H310.61a21.4 21.4 0 0 0 0 42.8H727.1a21.4 21.4 0 0 0 0-42.8z" p-id="3210"></path></svg>