<?xml version="1.0" standalone="no"?><!DOCTYPE svg PUBLIC "-//W3C//DTD SVG 1.1//EN" "http://www.w3.org/Graphics/SVG/1.1/DTD/svg11.dtd"><svg t="1681463285286" class="icon" viewBox="0 0 1024 1024" version="1.1" xmlns="http://www.w3.org/2000/svg" p-id="798" xmlns:xlink="http://www.w3.org/1999/xlink" width="200" height="200"><path d="M505 732.8c-126 0-228.6-102.6-228.6-228.6s102.6-228.6 228.6-228.6 228.6 102.6 228.6 228.6-102.4 228.6-228.6 228.6z m0-415.8c-103.2 0-187 84-187 187s84 187 187 187c103.2 0 187-84 187-187s-83.8-187-187-187z" fill="#d81e06" p-id="799"></path><path d="M505 102.2h13.8c7.6 0 13.8 6.2 13.8 13.8v124.8c0 7.6-6.2 13.8-13.8 13.8h-13.8c-7.6 0-13.8-6.2-13.8-13.8V116c0-7.6 6.2-13.8 13.8-13.8zM505 767.4h13.8c7.6 0 13.8 6.2 13.8 13.8V906c0 7.6-6.2 13.8-13.8 13.8h-13.8c-7.6 0-13.8-6.2-13.8-13.8v-124.8c0-7.6 6.2-13.8 13.8-13.8zM806.2 215.4l9.8 10c5.4 5.4 5.2 14.2-0.2 19.6L726.2 332c-5.4 5.4-14.2 5.2-19.6-0.2l-9.8-10c-5.4-5.4-5.2-14.2 0.2-19.6l89.4-87c5.6-5.4 14.4-5.2 19.8 0.2zM317.4 690.2l9.8 10c5.4 5.4 5.2 14.2-0.2 19.6l-89.4 87c-5.4 5.4-14.2 5.2-19.6-0.2l-9.8-10c-5.4-5.4-5.2-14.2 0.2-19.6l89.4-87c5.4-5.4 14.2-5.2 19.6 0.2zM782.2 490.2h124.8c7.6 0 13.8 6.2 13.8 13.8v13.8c0 7.6-6.2 13.8-13.8 13.8h-124.8c-7.6 0-13.8-6.2-13.8-13.8V504c0-7.6 6.2-13.8 13.8-13.8zM117 490.2h124.8c7.6 0 13.8 6.2 13.8 13.8v13.8c0 7.6-6.2 13.8-13.8 13.8H117c-7.6 0-13.8-6.2-13.8-13.8V504c0-7.6 6.2-13.8 13.8-13.8zM214.6 218.6l9.8-9.8c5.4-5.4 14.2-5.2 19.6 0.2l87.6 88.8c5.4 5.4 5.2 14.2-0.2 19.6l-9.8 9.8c-5.4 5.4-14.2 5.2-19.6-0.2l-87.4-88.8c-5.4-5.4-5.4-14.2 0-19.6zM692.6 704.4l9.8-9.8c5.4-5.4 14.2-5.2 19.6 0.2l87.4 88.8c5.4 5.4 5.2 14.2-0.2 19.6l-9.8 9.8c-5.4 5.4-14.2 5.2-19.6-0.2L692.4 724c-5.4-5.4-5.4-14.2 0.2-19.6z" fill="#d81e06" p-id="800"></path></svg>